<svg width="100" height="100" viewBox="0 0 100 100" fill="none" xmlns="http://www.w3.org/2000/svg" xmlns:xlink="http://www.w3.org/1999/xlink">
<path d="M50,0C22.45,0 0,22.45 0,50C0,77.55 22.45,100 50,100C77.55,100 100,77.55 100,50C100,22.45 77.55,0 50,0ZM63.95,52.65L46.3,70.3C45.55,71.05 44.6,71.4 43.65,71.4C42.7,71.4 41.75,71.05 41,70.3C39.55,68.85 39.55,66.45 41,65L56,50L41,35C39.55,33.55 39.55,31.15 41,29.7C42.45,28.25 44.85,28.25 46.3,29.7L63.95,47.35C65.45,48.8 65.45,51.2 63.95,52.65Z" fill="#FFFFFF"/>
</svg>
