<svg width="100" height="100" viewBox="0 0 100 100" fill="none" xmlns="http://www.w3.org/2000/svg" xmlns:xlink="http://www.w3.org/1999/xlink">
<path d="M50,0C22.45,0 0,22.45 0,50C0,77.55 22.45,100 50,100C77.55,100 100,77.55 100,50C100,22.45 77.55,0 50,0ZM58.95,65C60.4,66.45 60.4,68.85 58.95,70.3C58.2,71.05 57.25,71.4 56.3,71.4C55.35,71.4 54.4,71.05 53.65,70.3L36,52.65C34.55,51.2 34.55,48.8 36,47.35L53.65,29.7C55.1,28.25 57.5,28.25 58.95,29.7C60.4,31.15 60.4,33.55 58.95,35L43.95,50L58.95,65Z" fill="#FFFFFF"/>
</svg>
